<svg id="hawk" data-name="Layer 1" xmlns="http://www.w3.org/2000/svg" viewBox="0 0 326.9 207.68">
  <title>owl</title>
  <g>
    <polygon points="143.63 28.25 178.12 29.88 225.36 47.24 206.49 90.92 182.45 146.61 137.93 162.9 91.78 47.8 143.63 28.25"/>
    <path d="M238.15,68l-12.49,9.5,11.81,1Zm-82.54,1.5V77l-.08.6,12.84,1.84Zm62.72,22.12H176.79l-.81.28-42.08,14.38-4.63-.28,21.57-40.73,91.11.28.24-.08,14.42,43.25L218.33,91.91Z" transform="translate(-36.41 -65.29)"/>
    <polygon points="231.88 51.59 326.89 93.36 212.05 94.76 211.74 95.07 208.51 91.78 230.38 54.18 231.88 51.59"/>
    <polygon points="314.95 83.63 234.04 46.98 249.24 18.73 314.95 83.63"/>
    <polygon points="244.91 17.92 227.8 52.68 226.09 47.01 218.56 21.99 244.91 17.92"/>
    <polygon points="184.45 149.1 155.72 207.68 135.26 166.68 184.45 149.1"/>
    <polygon points="93.95 62.99 107.39 92.32 101.49 98.23 101.28 98.02 3.37 99.63 93.95 62.99"/>
    <polygon points="100.66 21.99 88.75 43.45 76.84 19.82 100.66 21.99"/>
    <polygon points="71.95 19.29 89.6 59.2 0.78 97.22 0 95.38 71.95 19.29"/>
  </g>
</svg>
