<svg display="none">
    <symbol id="bird"  xmlns="http://www.w3.org/2000/svg" viewBox="0 0 241.36 199.05">
      <title>bird</title>
        <polygon points="218.41 29.78 241.36 56.47 217.17 54.61 218.41 29.78"/>
        <polygon points="218.41 29.78 206.62 87.18 168.78 50.58 218.41 29.78"/>
        <polygon points="217.78 61.44 214.68 107.34 134.02 157.6 208.48 96.18 217.78 61.44"/>
        <polygon points="120.38 4.96 208.48 96.18 112.3 169.39 120.38 4.96"/>
        <polygon points="147.67 8.69 164.42 44.36 130.92 8.69 147.67 8.69"/>
        <polygon points="114.79 3.1 109.83 85.62 0 0 114.79 3.1"/>
        <polygon points="109.2 94.94 108.59 194.83 78.39 199.04 109.2 94.94"/>
    </symbol>

    <symbol id="unicorn"  xmlns="http://www.w3.org/2000/svg" viewBox="0 0 322.99 376.55">
      <title>unicorn</title>
        <polygon points="322.99 0 286.42 73.35 276.85 65.96 322.99 0"/>
        <polygon points="321.6 102.24 321.6 133.22 274.72 108.35 277.17 214.73 243.34 197.21 223.78 133.22 246.2 81.04 271.87 68.81 321.6 102.24"/>
        <polygon points="251.49 235.52 307.34 376.55 201.97 271.8 220.51 270.58 223.78 190.28 275.95 220.44 275.95 223.91 251.49 235.52"/>
        <polygon points="218.89 138.11 234.98 190.28 216.44 182.53 187.5 220.44 160.6 195.98 184.24 178.46 169.56 169.09 218.89 138.11"/>
        <polygon points="216.85 190.28 216.44 257.53 185.87 233.89 216.85 190.28"/>
        <polygon points="211.25 266.1 94.16 236.33 152.7 201.49 179.35 219.63 180.98 238.78 211.25 266.1"/>
        <polygon points="176.9 179.27 99.46 227.37 125.13 186.41 151.63 186.41 163.04 171.94 176.9 179.27"/>
        <polygon points="147.96 256.72 81.93 363.92 83.97 251.21 0 281.99 82.74 194.35 114.94 192.31 86.41 239.19 147.96 256.72"/>
    </symbol>

    <symbol id="mantis" xmlns="http://www.w3.org/2000/svg" viewBox="0 0 239.32 170.83">
      <title>mantis</title>
        <polygon points="239.32 103.06 170.71 62.56 212.69 79.15 239.32 103.06"/>
        <polygon points="233.57 102.42 162.4 82.6 163.46 61.29 233.57 102.42"/>
        <polygon points="196.71 29.11 195.11 36.15 158.56 35.29 161.25 17.33 183.06 18.67 196.71 29.11"/>
        <polygon points="195.21 38.91 195.01 48.61 189.46 54.25 176.67 42.32 165.16 50.42 157.34 38.06 195.21 38.91"/>
        <polygon points="155.57 37.85 163.46 59.37 141.09 67.9 120.21 34.43 155.57 37.85"/>
        <polygon points="160.48 62.56 149.82 91.97 141.09 67.9 160.48 62.56"/>
        <polygon points="159.52 73.23 155.15 147.17 145.46 110.73 159.52 73.23"/>
        <polygon points="147.26 14.62 155.57 35.29 121.48 31.67 147.26 14.62"/>
        <polygon points="119.35 38.49 140.03 75.99 118.49 62.36 119.35 38.49"/>
        <polygon points="115.45 0 116.15 34.66 3.75 31.38 115.45 0"/>
        <polygon points="116.15 34.66 114.75 78.22 0 38.41 116.15 34.66"/>
        <polygon points="113.38 84.74 105.92 134.81 85.25 170.83 113.38 84.74"/>
        <polygon points="109.76 79.15 84.31 79.15 16.86 48.7 109.76 79.15"/>
        <polygon points="109.66 86.65 80.99 168.91 90.16 100.5 109.66 86.65"/>
        <polygon points="104.91 82.6 24.36 119.44 78.22 82.6 104.91 82.6"/>
        <polygon points="104.91 86.02 88.24 97.94 45.41 114.99 104.91 86.02"/>
    </symbol>

    <symbol id="hawk" xmlns="http://www.w3.org/2000/svg" viewBox="0 0 326.9 207.68">
      <title>hawk</title>
        <polygon points="143.63 28.25 178.12 29.88 225.36 47.24 206.49 90.92 182.45 146.61 137.93 162.9 91.78 47.8 143.63 28.25"/>
        <path d="M238.15,68l-12.49,9.5,11.81,1Zm-82.54,1.5V77l-.08.6,12.84,1.84Zm62.72,22.12H176.79l-.81.28-42.08,14.38-4.63-.28,21.57-40.73,91.11.28.24-.08,14.42,43.25L218.33,91.91Z" transform="translate(-36.41 -65.29)"/>
        <polygon points="231.88 51.59 326.89 93.36 212.05 94.76 211.74 95.07 208.51 91.78 230.38 54.18 231.88 51.59"/>
        <polygon points="314.95 83.63 234.04 46.98 249.24 18.73 314.95 83.63"/>
        <polygon points="244.91 17.92 227.8 52.68 226.09 47.01 218.56 21.99 244.91 17.92"/>
        <polygon points="184.45 149.1 155.72 207.68 135.26 166.68 184.45 149.1"/>
        <polygon points="93.95 62.99 107.39 92.32 101.49 98.23 101.28 98.02 3.37 99.63 93.95 62.99"/>
        <polygon points="100.66 21.99 88.75 43.45 76.84 19.82 100.66 21.99"/>
        <polygon points="71.95 19.29 89.6 59.2 0.78 97.22 0 95.38 71.95 19.29"/>
  </symbol>

  <symbol id="rooster" xmlns="http://www.w3.org/2000/svg" viewBox="0 0 362.75 331.98">
    <title>rooster</title>
      <polygon points="362.75 40.97 353.99 145.42 269.74 226.81 250.56 319.73 235.75 329.82 168.7 331.98 235.55 317.93 235.96 307.85 217.19 288.4 175.07 288.4 208.44 281.92 202.6 273.99 185.08 273.63 307.28 59.34 362.75 40.97"/>
      <polygon points="306.67 52.12 180.88 270.75 156.53 101.69 306.67 52.12"/>
      <polygon points="150.47 101.12 166.31 268.95 62.47 210.61 62.47 192.6 28.47 129.57 119.19 83.47 139.21 100.4 150.47 101.12"/>
      <polygon points="97.65 24.15 116.78 76.9 30.77 120.93 34.11 5.68 41.71 0 97.65 24.15"/>
      <polygon points="30.45 6.62 30.2 29.95 29.95 53.27 14.98 41.45 0 29.63 15.22 18.12 30.45 6.62"/>
  </symbol>
</svg>
