<svg id="mantis" data-name="Layer 1" xmlns="http://www.w3.org/2000/svg" viewBox="0 0 239.32 170.83">
  <title>mantis</title>
  <g>
    <polygon points="239.32 103.06 170.71 62.56 212.69 79.15 239.32 103.06"/>
    <polygon points="233.57 102.42 162.4 82.6 163.46 61.29 233.57 102.42"/>
    <polygon points="196.71 29.11 195.11 36.15 158.56 35.29 161.25 17.33 183.06 18.67 196.71 29.11"/>
    <polygon points="195.21 38.91 195.01 48.61 189.46 54.25 176.67 42.32 165.16 50.42 157.34 38.06 195.21 38.91"/>
    <polygon points="155.57 37.85 163.46 59.37 141.09 67.9 120.21 34.43 155.57 37.85"/>
    <polygon points="160.48 62.56 149.82 91.97 141.09 67.9 160.48 62.56"/>
    <polygon points="159.52 73.23 155.15 147.17 145.46 110.73 159.52 73.23"/>
    <polygon points="147.26 14.62 155.57 35.29 121.48 31.67 147.26 14.62"/>
    <polygon points="119.35 38.49 140.03 75.99 118.49 62.36 119.35 38.49"/>
    <polygon points="115.45 0 116.15 34.66 3.75 31.38 115.45 0"/>
    <polygon points="116.15 34.66 114.75 78.22 0 38.41 116.15 34.66"/>
    <polygon points="113.38 84.74 105.92 134.81 85.25 170.83 113.38 84.74"/>
    <polygon points="109.76 79.15 84.31 79.15 16.86 48.7 109.76 79.15"/>
    <polygon points="109.66 86.65 80.99 168.91 90.16 100.5 109.66 86.65"/>
    <polygon points="104.91 82.6 24.36 119.44 78.22 82.6 104.91 82.6"/>
    <polygon points="104.91 86.02 88.24 97.94 45.41 114.99 104.91 86.02"/>
  </g>
</svg>
