<svg id="rooster" data-name="Layer 1" xmlns="http://www.w3.org/2000/svg" viewBox="0 0 362.75 331.98">
  <title>rooster</title>
  <g>
    <polygon points="362.75 40.97 353.99 145.42 269.74 226.81 250.56 319.73 235.75 329.82 168.7 331.98 235.55 317.93 235.96 307.85 217.19 288.4 175.07 288.4 208.44 281.92 202.6 273.99 185.08 273.63 307.28 59.34 362.75 40.97"/>
    <polygon points="306.67 52.12 180.88 270.75 156.53 101.69 306.67 52.12"/>
    <polygon points="150.47 101.12 166.31 268.95 62.47 210.61 62.47 192.6 28.47 129.57 119.19 83.47 139.21 100.4 150.47 101.12"/>
    <polygon points="97.65 24.15 116.78 76.9 30.77 120.93 34.11 5.68 41.71 0 97.65 24.15"/>
    <polygon points="30.45 6.62 30.2 29.95 29.95 53.27 14.98 41.45 0 29.63 15.22 18.12 30.45 6.62"/>
  </g>
</svg>
