<svg id="unicorn" data-name="Layer 1" xmlns="http://www.w3.org/2000/svg" viewBox="0 0 322.99 376.55">
  <title>unicorn</title>
  <g>
    <polygon points="322.99 0 286.42 73.35 276.85 65.96 322.99 0"/>
    <polygon points="321.6 102.24 321.6 133.22 274.72 108.35 277.17 214.73 243.34 197.21 223.78 133.22 246.2 81.04 271.87 68.81 321.6 102.24"/>
    <polygon points="251.49 235.52 307.34 376.55 201.97 271.8 220.51 270.58 223.78 190.28 275.95 220.44 275.95 223.91 251.49 235.52"/>
    <polygon points="218.89 138.11 234.98 190.28 216.44 182.53 187.5 220.44 160.6 195.98 184.24 178.46 169.56 169.09 218.89 138.11"/>
    <polygon points="216.85 190.28 216.44 257.53 185.87 233.89 216.85 190.28"/>
    <polygon points="211.25 266.1 94.16 236.33 152.7 201.49 179.35 219.63 180.98 238.78 211.25 266.1"/>
    <polygon points="176.9 179.27 99.46 227.37 125.13 186.41 151.63 186.41 163.04 171.94 176.9 179.27"/>
    <polygon points="147.96 256.72 81.93 363.92 83.97 251.21 0 281.99 82.74 194.35 114.94 192.31 86.41 239.19 147.96 256.72"/>
  </g>
</svg>
